<svg xmlns="http://www.w3.org/2000/svg" width="548" height="633" version="1.1"><path
    d="M 312.985 7.885 C 248.289 34.059, 198.615 88.280, 178.453 154.734 C 176.578 160.913, 172.777 177.338, 170.006 191.234 C 165.023 216.221, 162.386 226.197, 158.964 233 C 156.580 237.741, 150.396 243.937, 146.368 245.620 C 139.748 248.386, 130.639 246.800, 124.612 241.832 C 119.865 237.919, 114.490 226.836, 112.971 217.828 C 111.323 208.055, 112.251 186.661, 114.955 172.119 C 116.119 165.860, 116.890 160.557, 116.669 160.335 C 115.267 158.933, 89.798 182.869, 78.776 195.948 C 60.909 217.150, 47.860 237.043, 34.464 263.500 C 16.127 299.718, 6.387 331.624, 1.953 370 C 0.396 383.477, 0.638 417.314, 2.386 430.534 C 9.528 484.550, 32.597 531.069, 72.075 571.061 C 84.648 583.799, 98.435 596, 100.254 596 C 100.510 596, 107.644 588.462, 116.107 579.250 C 124.570 570.038, 131.946 562.011, 132.497 561.413 C 144.331 548.583, 166.320 523.592, 168.835 520.113 C 176.285 509.808, 183.476 491.990, 187.140 474.756 C 188.935 466.313, 189.306 461.406, 189.238 447 C 189.192 437.375, 188.782 428.269, 188.326 426.765 C 187.511 424.075, 187.448 424.055, 184.499 425.602 C 178.789 428.597, 150.580 440.079, 140.317 443.586 C 121.604 449.980, 101.410 452.630, 91.781 449.956 C 87.506 448.769, 82.389 444.802, 81.494 441.982 C 79.931 437.057, 89.923 423.612, 104.611 410.877 C 113.545 403.131, 134.379 387.296, 152.269 374.655 C 155.992 372.024, 159.758 368.773, 160.638 367.429 C 161.795 365.664, 162.611 360.006, 163.577 347.048 C 165.229 324.900, 167.039 315.012, 172.172 300.109 C 186.034 259.857, 212.858 230.899, 256.933 208.605 C 277.729 198.086, 297.690 191.055, 324 184.981 C 335.581 182.308, 355.393 178.706, 364.272 177.659 C 368.545 177.155, 368.599 177.217, 371.805 186.500 C 372.945 189.800, 377.314 201.725, 381.513 213 C 392.975 243.776, 403.233 271.792, 408.975 288 C 411.800 295.975, 414.766 303.503, 415.565 304.729 C 418.198 308.767, 421.922 309.776, 438.527 310.950 C 479.024 313.814, 484.008 315.209, 483.996 323.684 C 483.983 333.423, 467.645 343.024, 436.787 351.425 C 429.795 353.329, 420.038 355.628, 415.104 356.535 C 409.360 357.590, 406.262 358.600, 406.493 359.342 C 406.690 359.979, 408.035 364.325, 409.480 369 C 413.270 381.257, 418.609 391.243, 427.864 403.383 C 432.334 409.246, 436.721 415.721, 437.614 417.772 C 440.150 423.598, 441.078 429.662, 439.908 432.760 C 437.745 438.486, 430.643 443.796, 421.500 446.522 L 417.500 447.715 416.779 456.608 C 412.495 509.402, 412.541 509.072, 408.642 514.965 C 403.275 523.075, 392.127 525.914, 365.439 525.969 C 345.293 526.010, 346.232 525.150, 341.128 548.234 C 339.515 555.530, 337.902 563.326, 337.542 565.557 L 336.889 569.614 349.195 583.106 C 355.963 590.527, 366.900 602.613, 373.500 609.964 C 380.100 617.315, 387.300 625.295, 389.500 627.697 L 393.500 632.065 404.469 625.945 C 430.487 611.430, 447.968 598.188, 469 577.064 C 520.813 525.023, 547.249 459.863, 544.575 390.782 C 542.904 347.611, 532.078 311.664, 509.331 273.761 C 481.226 226.931, 435.445 178.846, 373.500 131.094 C 349.225 112.380, 338.486 100.605, 330.794 84.265 C 322.768 67.215, 320.651 45.179, 324.385 17.542 C 325.273 10.964, 326 5.227, 326 4.792 C 326 3.229, 322.346 4.098, 312.985 7.885" stroke="none" fill="#a62b22" fill-rule="evenodd"/><path d="M 0.144 196.250 C 0.228 311.379, 0.631 387.408, 1.119 380.182 C 3.799 340.521, 14.595 302.744, 34.464 263.500 C 47.860 237.043, 60.909 217.150, 78.776 195.948 C 89.798 182.869, 115.267 158.933, 116.669 160.335 C 116.890 160.557, 116.119 165.860, 114.955 172.119 C 112.251 186.661, 111.323 208.055, 112.971 217.828 C 114.490 226.836, 119.865 237.919, 124.612 241.832 C 130.639 246.800, 139.748 248.386, 146.368 245.620 C 150.396 243.937, 156.580 237.741, 158.964 233 C 162.386 226.197, 165.023 216.221, 170.006 191.234 C 177.442 153.950, 184.049 134.176, 196.635 111.538 C 217.850 73.380, 244.772 45.576, 282.269 23.099 C 297.237 14.127, 323.812 2.479, 325.489 4.156 C 325.823 4.490, 325.349 10.329, 324.434 17.132 C 320.656 45.242, 322.730 67.134, 330.794 84.265 C 338.486 100.605, 349.225 112.380, 373.500 131.094 C 435.445 178.846, 481.226 226.931, 509.331 273.761 C 532.078 311.664, 542.904 347.611, 544.575 390.782 C 547.249 459.863, 520.813 525.023, 469 577.064 C 447.968 598.188, 430.487 611.430, 404.469 625.945 L 393.500 632.065 389.500 627.697 C 387.300 625.295, 380.100 617.315, 373.500 609.964 C 366.900 602.613, 355.963 590.527, 349.195 583.106 L 336.889 569.614 337.542 565.557 C 338.569 559.177, 343.964 535.226, 344.969 532.580 C 345.469 531.267, 346.890 529.249, 348.127 528.096 C 350.202 526.164, 351.553 525.998, 365.439 525.969 C 392.127 525.914, 403.275 523.075, 408.642 514.965 C 412.541 509.072, 412.495 509.402, 416.779 456.608 L 417.500 447.715 421.500 446.522 C 430.643 443.796, 437.745 438.486, 439.908 432.760 C 441.078 429.662, 440.150 423.598, 437.614 417.772 C 436.721 415.721, 432.334 409.246, 427.864 403.383 C 418.609 391.243, 413.270 381.257, 409.480 369 C 408.035 364.325, 406.690 359.979, 406.493 359.342 C 406.262 358.600, 409.360 357.590, 415.104 356.535 C 420.038 355.628, 429.795 353.329, 436.787 351.425 C 467.645 343.024, 483.983 333.423, 483.996 323.684 C 484.008 315.209, 479.024 313.814, 438.527 310.950 C 421.922 309.776, 418.198 308.767, 415.565 304.729 C 414.766 303.503, 411.800 295.975, 408.975 288 C 403.233 271.792, 392.975 243.776, 381.513 213 C 377.314 201.725, 372.945 189.800, 371.805 186.500 C 368.599 177.217, 368.545 177.155, 364.272 177.659 C 355.393 178.706, 335.581 182.308, 324 184.981 C 297.690 191.055, 277.729 198.086, 256.933 208.605 C 212.858 230.899, 186.034 259.857, 172.172 300.109 C 167.039 315.012, 165.229 324.900, 163.577 347.048 C 162.611 360.006, 161.795 365.664, 160.638 367.429 C 159.758 368.773, 155.992 372.024, 152.269 374.655 C 134.379 387.296, 113.545 403.131, 104.611 410.877 C 89.923 423.612, 79.931 437.057, 81.494 441.982 C 82.389 444.802, 87.506 448.769, 91.781 449.956 C 101.410 452.630, 121.604 449.980, 140.317 443.586 C 150.580 440.079, 178.789 428.597, 184.499 425.602 C 187.448 424.055, 187.511 424.075, 188.326 426.765 C 188.782 428.269, 189.192 437.375, 189.238 447 C 189.306 461.406, 188.935 466.313, 187.140 474.756 C 183.476 491.990, 176.285 509.808, 168.835 520.113 C 166.320 523.592, 144.331 548.583, 132.497 561.413 C 131.946 562.011, 124.570 570.038, 116.107 579.250 C 107.644 588.462, 100.510 596, 100.254 596 C 98.435 596, 84.648 583.799, 72.075 571.061 C 28.347 526.764, 4.100 473.139, 1.058 414 C 0.637 405.826, 0.244 450.433, 0.156 516.252 L 0 633.004 274.250 632.752 L 548.500 632.500 548.750 316.250 L 549 0 274.500 0 L 0 0 0.144 196.250 M 0.490 196.500 C 0.490 304.300, 0.607 348.252, 0.750 294.170 C 0.893 240.089, 0.893 151.889, 0.750 98.170 C 0.607 44.452, 0.490 88.700, 0.490 196.500 M 0.484 516.500 C 0.484 580.850, 0.603 607.028, 0.750 574.673 C 0.896 542.318, 0.896 489.668, 0.750 457.673 C 0.603 425.678, 0.484 452.150, 0.484 516.500" stroke="none" fill="#ffffff" fill-rule="evenodd"/></svg>